<?xml version="1.0" encoding="UTF-8"?>
<!DOCTYPE svg PUBLIC "-//W3C//DTD SVG 1.1//EN" "http://www.w3.org/Graphics/SVG/1.1/DTD/svg11.dtd">
<!-- Creator: CorelDRAW 2020 (64 Bit) -->
<svg xmlns="http://www.w3.org/2000/svg" xml:space="preserve" width="38.0369mm" height="39.0993mm" version="1.1" style="shape-rendering:geometricPrecision; text-rendering:geometricPrecision; image-rendering:optimizeQuality; fill-rule:evenodd; clip-rule:evenodd"
viewBox="0 0 577.29 593.41"
 xmlns:xlink="http://www.w3.org/1999/xlink"
 xmlns:xodm="http://www.corel.com/coreldraw/odm/2003">
 <defs>
  <style type="text/css">
   <![CDATA[
    .fil0 {fill:#E75638}
   ]]>
  </style>
 </defs>
 <g id="Camada_x0020_1">
  <metadata id="CorelCorpID_0Corel-Layer"/>
  <path class="fil0" d="M48.68 376.68l31.29 0 0 168.05 -31.29 0 0 -168.05zm275.84 168.05l-124.01 0c-9.76,0 -15.3,-1.62 -22.02,-4.64 -3.61,-1.62 -5.4,-3.03 -8.92,-4.99 -5.05,-2.82 -40.92,-24.13 -40.92,-28.62l0 -119.38c23.91,0 57.84,16.66 81.26,24.2 7.24,2.33 21.43,5.5 29.99,5.94 25.81,1.33 75.45,0.06 105.48,-0.01 12.91,-0.03 23.18,0.03 23.18,12.75 0,8.65 -12.36,12.48 -18.95,15.82 -6.85,3.48 -16.62,10.29 -23.94,11.99l10.82 21.63c3.45,6.9 9.97,17.13 11.2,22.41 6.73,-3.56 14.28,-6.69 20.81,-10.48l115.94 -61.39c8.68,-4.52 26.75,-15.05 33.63,-15.05 9.53,0 16.86,13.84 2.29,23.15l-37.56 22.71c-8.94,5.38 -16.48,10.09 -25.21,15.35 -26.56,15.99 -61.5,38.09 -87.87,52.37 -13.18,7.14 -28.49,16.23 -45.2,16.23zm-99.67 -270.05c0,-42.59 55.33,-40.21 61.43,-17.39l4.64 0c2.88,-10.79 17.28,-16.23 31.29,-16.23 20.14,0 43.39,25.46 20.88,59.12 -2.24,3.36 -4.39,7.13 -7.24,10.14 -16.85,17.78 -25.1,27.17 -47.24,42 -6.89,-4.62 -13.35,-9.62 -19.88,-14.89 -3.47,-2.8 -5.45,-5.07 -9.27,-8.11 -7.73,-6.16 -11.88,-12.67 -17.52,-18.41 -3.15,-3.21 -4.75,-6.17 -7.35,-10.03 -4.62,-6.87 -9.73,-15.46 -9.73,-26.2zm272.37 -226l31.29 0 0 168.05 -31.29 0 0 -168.05zm-438.1 129.81c-9.53,0 -16.86,-13.83 -2.29,-23.15 25.86,-16.53 63.75,-37.27 88.05,-53.35 7.82,-5.17 16.25,-9.84 24.55,-14.86 8.73,-5.29 16.8,-9.8 25.5,-15.07 15.56,-9.42 39.56,-23.39 57.74,-23.39l124.01 0c15.24,0 20.46,3.78 30.94,9.63l25.39 16.33c4.76,3.18 15.53,8.99 15.53,12.28l0 119.38c-33.52,0 -73.99,-28.22 -111.26,-30.14 -25.81,-1.33 -75.45,-0.06 -105.48,0.01 -12.91,0.03 -23.18,-0.03 -23.18,-12.75 0,-8.65 12.36,-12.48 18.95,-15.82 6.85,-3.48 16.63,-10.29 23.94,-11.99l-10.82 -21.63c-3.45,-6.9 -9.97,-17.13 -11.2,-22.41 -6.73,3.56 -14.28,6.69 -20.81,10.48l-84.29 44.36c-12.39,6.19 -56.13,32.08 -65.28,32.08zm-59.11 -16.23c0,12.49 0.13,19.93 5.77,31.32 6.87,13.9 14.08,20.73 27.81,27.82 11.58,5.98 19.63,5.76 32.49,5.76 9.98,0 19.15,-4.92 26.29,-8.49 4.55,-2.28 6.62,-3.93 11.18,-6.21l46.37 -24.33c4.5,-2.23 8.27,-4.01 12.36,-6.18 5.33,10.07 2.44,9.61 12.57,22.21 3.91,4.87 14.32,13.32 21.05,14.88 -1.19,4.47 -7.05,8.13 -12.74,20.87 -15.43,34.56 -4.65,70.53 18.36,98.68l24.51 26.48c-8.55,-1.99 -33.13,-12.38 -45.92,-16.66 -8.29,-2.78 -15.72,-4.66 -24.53,-6.76 -3.79,-0.9 -7.76,-1.62 -12.64,-2.43 -4,-0.66 -9.92,-0.95 -14.26,-1.96l0 -9.27 -128.65 0 0 265.41 128.65 0 0 -25.5c8.39,2.24 32.77,25.5 66.06,25.5l135.6 0c37.17,0 119.31,-55.82 153.35,-76.13 5.6,-3.34 10.77,-6.27 15.86,-9.64 16.62,-11 50.2,-28.3 61.74,-40.25 22.33,-23.12 20.7,-62.25 -1.14,-84.1 -14.26,-14.26 -30.16,-17.05 -49.02,-17.05 -15.37,0 -44.96,19.09 -61.04,27.05l-35.16 18.15c-6.86,-12.96 -7.49,-19.97 -23.01,-31.46 -4.73,-3.5 -12.41,-7.41 -18.68,-9.14 -7.4,-2.05 -15.76,-2.28 -25.54,-2.28 4.25,-6.35 21.93,-20.77 32.93,-36.61 5.03,-7.24 8.69,-13.86 12.68,-22.09 7.63,-15.72 7.71,-25.71 7.71,-42.13 0,-9.65 -2.87,-15.59 -4.64,-23.18 15.47,7.42 38.22,8.34 52.15,11.59l0 9.27 128.65 0 0 -265.41 -128.65 0 0 25.5c-8.39,-2.24 -32.77,-25.5 -66.06,-25.5l-135.6 0c-37.17,0 -119.31,55.82 -153.36,76.13 -17.07,10.18 -67.41,39.33 -77.6,49.89 -6.88,7.13 -15.91,22.8 -15.91,36.25z"/>
 </g>
</svg>
