<?xml version="1.0" encoding="UTF-8"?>
<!DOCTYPE svg PUBLIC "-//W3C//DTD SVG 1.1//EN" "http://www.w3.org/Graphics/SVG/1.1/DTD/svg11.dtd">
<!-- Creator: CorelDRAW 2020 (64 Bit) -->
<svg xmlns="http://www.w3.org/2000/svg" xml:space="preserve" width="34.8915mm" height="34.8915mm" version="1.1" style="shape-rendering:geometricPrecision; text-rendering:geometricPrecision; image-rendering:optimizeQuality; fill-rule:evenodd; clip-rule:evenodd"
viewBox="0 0 672.34 672.34"
 xmlns:xlink="http://www.w3.org/1999/xlink"
 xmlns:xodm="http://www.corel.com/coreldraw/odm/2003">
 <defs>
  <style type="text/css">
   <![CDATA[
    .fil0 {fill:black}
   ]]>
  </style>
 </defs>
 <g id="Camada_x0020_1">
  <metadata id="CorelCorpID_0Corel-Layer"/>
  <path class="fil0" d="M453.51 360.94c-4.05,2.52 -3.98,4.9 -16.55,7.66l-58.1 0.29 -2.61 219.43c-24.44,9.44 -46.07,5.76 -73.38,5.69 -39.45,-1.19 -11.2,0.55 -21.45,-9.07l0.76 -218.35 -75.34 -3.28 -2 -74.84c3.11,-16.04 -2.81,-6.81 7.74,-15.16l68.75 -0.19c7.37,-132.06 2.36,-194.67 182.99,-188.32l0.98 92.4c-15.33,0.57 -36.31,-0.87 -49.97,0.22 -46.96,3.73 -41.47,31.46 -39.01,95.08l87.73 2.22 -10.54 86.23zm-452.39 12.11c25.11,374.07 562.44,396.54 656.17,72.72 13.87,-47.89 17.87,-99.62 13.16,-150.81 -37.92,-411.45 -701.35,-398.81 -669.33,78.1z"/>
 </g>
</svg>
