<?xml version="1.0" encoding="UTF-8"?>
<!DOCTYPE svg PUBLIC "-//W3C//DTD SVG 1.1//EN" "http://www.w3.org/Graphics/SVG/1.1/DTD/svg11.dtd">
<!-- Creator: CorelDRAW 2020 (64 Bit) -->
<svg xmlns="http://www.w3.org/2000/svg" xml:space="preserve" width="53.6108mm" height="36.4071mm" version="1.1" style="shape-rendering:geometricPrecision; text-rendering:geometricPrecision; image-rendering:optimizeQuality; fill-rule:evenodd; clip-rule:evenodd"
viewBox="0 0 326.7 221.86"
 xmlns:xlink="http://www.w3.org/1999/xlink"
 xmlns:xodm="http://www.corel.com/coreldraw/odm/2003">
 <defs>
  <style type="text/css">
   <![CDATA[
    .fil1 {fill:#FDBE32}
    .fil0 {fill:#E75638}
   ]]>
  </style>
 </defs>
 <g id="Camada_x0020_1">
  <metadata id="CorelCorpID_0Corel-Layer"/>
  <g id="_2466490478576">
   <path class="fil0" d="M225.31 221.86l18.22 0c9.68,-4.39 45.82,-3.96 71.37,-47.16 8.34,-14.11 6.88,-17.08 10.45,-26.25 0.93,-2.38 0.67,-1.72 1.36,-2.86l0 -32.8c-1.77,-4.19 -3.07,-12.57 -4.93,-17.65 -6.6,-18.04 -15.29,-28.07 -27.47,-39.97 2.54,-3.88 3.61,-4.31 5.93,-9.43 -3.75,-1.89 -6.51,-4.33 -10.1,-6.23 -3.74,3.14 -3.24,5.03 -7.31,7.79 -10.36,-5.56 -22.73,-11.54 -36.91,-12.83l-0.42 -11.96 -25.68 0.07 -0.18 10.86c-15.1,-0.08 -30.21,-0.02 -45.31,-0.02 -9.94,0 -36.88,-4.49 -33.58,9.91 2.38,10.36 28.05,6.17 38.45,6.17 13.58,0 31.23,0.93 44.05,-0.5 52.36,-5.83 96.92,37.86 88.41,90.96 -7.07,44.09 -53.79,82.21 -107.08,61.4 -18.86,-7.37 -10.09,-10.01 -35.14,-10 -5.83,0 -17.16,-1.47 -21.44,1.77 -4.68,3.54 -3.57,11.78 2.33,13.7 3.63,1.18 18.09,0.66 22.79,0.62 11.96,-0.09 8.96,-0.28 17.66,4.06 18.92,9.44 26.36,7.08 34.53,10.35z"/>
   <path class="fil1" d="M233 119.28c5.27,1.67 22.04,-6.73 28.17,-9.22 9.51,-3.87 18.78,-7.98 27.46,-12.21l8.42 -5.22c-6.78,-12.55 -37.32,-40.56 -63.67,-37.33l-0.38 63.98z"/>
   <path class="fil0" d="M64.71 69.14l0.38 9.53c8.9,4.71 37.95,2.36 50.71,2.36 13.51,0 41.95,1.53 53.64,-0.57 3.39,-3.6 3.9,-5.07 6.6,-8.05 2.58,-2.85 5.85,-4.19 7.68,-7.35l-92.29 -0.06c-11.99,0 -18.64,-2.24 -26.71,4.14z"/>
   <path class="fil0" d="M58.52 207.47l65.83 0c16.21,0 15.13,-16.11 1.22,-16.11l-68.27 -0c-13.83,-0 -15.38,16.11 1.22,16.11z"/>
   <path class="fil0" d="M26.36 141.95c7.95,3.86 69.84,3.92 77.6,-0.05 5.22,-17.82 -11.29,-13.62 -38.13,-13.62 -27.98,0 -44.73,-4.22 -39.47,13.67z"/>
   <path class="fil0" d="M97.14 112.07l56.46 0.61c2.98,-0.9 5.67,-12.47 6.11,-16.03 -14.58,0.23 -29.3,0.06 -43.89,0.05 -13.28,-0.01 -31.23,-0.93 -18.67,15.38z"/>
   <path class="fil0" d="M169.95 175.71c-3.1,-5.42 -6.45,-9.85 -8.9,-15.9l-41.59 0.04c-7.28,0 -12.74,1.35 -11.66,9.25 1.09,7.97 9.18,6.68 16.53,6.63 15.19,-0.11 30.43,-0.04 45.62,-0.01z"/>
   <path class="fil0" d="M252.81 0l-40.18 0c-7.73,24.46 3.34,18.7 31.25,19.03 8.54,0.1 15.18,-0.33 8.93,-19.03z"/>
   <path class="fil0" d="M96.56 33.79c-9.53,2.57 -8.45,14.41 1.21,15.6 3.52,0.43 26.78,0.43 29.38,-0.37 7.63,-2.35 7.82,-14.11 -1.93,-15.5 -3.61,-0.51 -26.05,-0.45 -28.66,0.26z"/>
   <path class="fil0" d="M233 119.28c-19.38,2.91 -3.98,29.28 8.17,13.41 3.58,-4.68 4.85,-4.65 9.48,-7.6 13.02,-8.29 27.38,-19 40.72,-26.19 -1.62,-1.94 0.42,-0.59 -2.74,-1.05 -8.68,4.24 -17.95,8.35 -27.46,12.21 -6.13,2.49 -22.9,10.9 -28.17,9.22z"/>
   <path class="fil0" d="M155.67 143.74l-1.76 -14.89c-6.23,-1.41 -15.52,-0.54 -22.28,-0.59 -7.68,-0.06 -15.28,-0.49 -15.06,8.28 0.22,8.97 9.3,7.74 16.31,7.68 7.52,-0.06 15.38,0.63 22.8,-0.48z"/>
   <path class="fil0" d="M60.9 160.48c-8.18,3.61 -6.33,13.93 2.49,15.12 4.09,0.55 24.22,0.6 27.42,-0.65 7.12,-2.79 6.1,-13.99 -3.08,-15.08 -4.19,-0.49 -24.18,-0.56 -26.83,0.61z"/>
   <path class="fil0" d="M52.59 97.2c-7.6,3 -7.74,12.84 -0.02,14.97 3.81,1.05 21.45,1 24.82,-0.57 6.21,-2.88 5.63,-12.62 -1.24,-14.48 -3.59,-0.97 -20.79,-1.01 -23.56,0.09z"/>
   <path class="fil0" d="M49.19 79.6c1.92,-4.18 2.28,-6.52 1.11,-11.94 -5.57,-3.45 -24.91,-5.94 -27.28,3.33 -3.52,13.76 19,10.72 26.17,8.61z"/>
   <path class="fil0" d="M35.84 206.27c6.24,-10.03 -1.01,-19.02 -11.76,-14 -6.32,2.95 -8.11,18.61 11.76,14z"/>
   <path class="fil0" d="M309.65 43.88c4,-6.1 -1.87,-8.23 -5.81,-11.26 -3.65,-2.8 -8.94,-8.63 -13.26,-4.15 -4.69,4.85 2.3,8.45 5.38,10.81 8.18,6.24 8.52,7.91 13.69,4.6z"/>
   <path class="fil0" d="M-0 131.96l0 8.44c7.46,3.35 3.7,5.29 13.82,2.47 2.11,-3.94 3.65,-9.92 -0.98,-13.17 -5.16,-3.63 -9.47,0.44 -12.84,2.25z"/>
  </g>
 </g>
</svg>
