<?xml version="1.0" encoding="UTF-8"?>
<!DOCTYPE svg PUBLIC "-//W3C//DTD SVG 1.1//EN" "http://www.w3.org/Graphics/SVG/1.1/DTD/svg11.dtd">
<!-- Creator: CorelDRAW 2020 (64 Bit) -->
<svg xmlns="http://www.w3.org/2000/svg" xml:space="preserve" width="55.008mm" height="42.9197mm" version="1.1" style="shape-rendering:geometricPrecision; text-rendering:geometricPrecision; image-rendering:optimizeQuality; fill-rule:evenodd; clip-rule:evenodd"
viewBox="0 0 2077.94 1621.3"
 xmlns:xlink="http://www.w3.org/1999/xlink"
 xmlns:xodm="http://www.corel.com/coreldraw/odm/2003">
 <defs>
  <style type="text/css">
   <![CDATA[
    .fil0 {fill:#E75638}
   ]]>
  </style>
 </defs>
 <g id="Camada_x0020_1">
  <metadata id="CorelCorpID_0Corel-Layer"/>
  <g id="_2466369066160">
   <path class="fil0" d="M508.43 1243.05c139.05,-47.2 202.43,166.86 74.54,212.6 -144.16,51.56 -224.39,-161.72 -74.54,-212.6zm1080.79 1.39c62.78,-22.4 123.15,17.23 139.84,64.1 24.92,70.02 -17.31,131.99 -67.55,148.18 -146.18,47.09 -213.44,-161.92 -72.28,-212.29zm-145.94 -728.19l250.21 -0.24c38.98,18.46 86.04,145.66 108.21,189.95 29.6,59.15 73.67,135.3 94.12,193.69l-452.93 -0.48 0.39 -382.92zm-1024.14 -352.9c439.2,-104.23 586.47,567.88 149.38,660.66 -442.76,93.98 -571.35,-560.51 -149.38,-660.66zm-419.13 267.42l0 122.83c14.3,31.41 19.1,82.6 34.16,120.64 15.98,40.33 35.57,67.59 51.99,101.23 13.24,16.21 4.78,-18.84 10.93,28.45l-0.86 541.51c45.1,-0.8 140.22,-10.75 174.13,8.92 43.35,316.1 348.08,315.02 469.75,180.34 92.38,-102.25 46.03,-172.77 87.4,-185.53l509.97 0c28.4,18.6 13.84,10.97 23.67,57.44 58.93,278.58 483.47,311.22 533.66,-52.25 10.99,-6.45 2.13,-5.25 20.67,-8.77l152.96 -0.15 -1.61 -451.11c-15.34,-69.66 -145.85,-303.02 -189.4,-389.59 -95.99,-190.85 -46.41,-139.34 -433.95,-146.3l0.04 -180.36 -567.93 -0.33c-77.38,-132.41 -335.04,-223.93 -538.85,-153.14 -290.4,100.86 -296.7,318.83 -336.72,406.17z"/>
   <polygon class="fil0" points="488.71,290.95 418.55,518.97 577.32,667.12 673.45,576.52 576.84,476.93 621.98,323.49 513.52,283.76 "/>
   <path class="fil0" d="M270.35 1354.35c-33.91,-19.67 -129.04,-9.72 -174.13,-8.92l0.86 -541.51c-6.15,-47.29 2.3,-12.24 -10.93,-28.45l3.17 577.81 181.04 1.06z"/>
   <path class="fil0" d="M1894.8 1354.35l182.9 -4.29 0.25 -430.25c-3.61,-40.48 -1.61,-16.34 -11.13,-25.48l1.61 451.11 -152.96 0.15c-18.53,3.52 -9.67,2.32 -20.67,8.77z"/>
   <path class="fil0" d="M488.71 290.95l24.81 -7.2c0,-24.82 -20.4,0.17 -24.81,7.2z"/>
  </g>
 </g>
</svg>
