<?xml version="1.0" encoding="UTF-8"?>
<!DOCTYPE svg PUBLIC "-//W3C//DTD SVG 1.1//EN" "http://www.w3.org/Graphics/SVG/1.1/DTD/svg11.dtd">
<!-- Creator: CorelDRAW 2020 (64 Bit) -->
<svg xmlns="http://www.w3.org/2000/svg" xml:space="preserve" width="41.8541mm" height="38.0665mm" version="1.1" style="shape-rendering:geometricPrecision; text-rendering:geometricPrecision; image-rendering:optimizeQuality; fill-rule:evenodd; clip-rule:evenodd"
viewBox="0 0 502.69 457.2"
 xmlns:xlink="http://www.w3.org/1999/xlink"
 xmlns:xodm="http://www.corel.com/coreldraw/odm/2003">
 <defs>
  <style type="text/css">
   <![CDATA[
    .fil0 {fill:#E75638}
   ]]>
  </style>
 </defs>
 <g id="Camada_x0020_1">
  <metadata id="CorelCorpID_0Corel-Layer"/>
  <g id="_2466506325216">
   <path class="fil0" d="M158.05 50.96c4.99,-2.17 15.33,-5.91 21.17,-6.7 1.36,1.99 2.53,3.04 3.64,5.08 2.74,0.89 7.92,6.2 10.06,8.56 3.99,2.49 1.35,3.67 7.43,2.19 3.37,-0.82 6.02,-1.59 9.77,-2.03l17.16 -2.47c5.65,-0.41 20.59,-2.17 24.6,0.37 3.82,-0.67 5.97,-0.06 9.69,0.45 8.81,1.53 17.76,3.85 24.56,9.05 4.41,3.37 4.39,2.68 5.81,5.94l-13.27 4.3c-4.33,1.75 -11.18,4.65 -15.73,4.55 -4.36,4.47 -6.77,1.28 -9.6,-0.93 -2.79,-2.18 -5.35,-3.09 -8.94,-4.47 -7.4,-1.24 -10.7,-0.54 -17.66,0.79l-11.12 2.97 2.02 2.86c1.43,1.95 0.4,0.03 1.54,2.23 2.7,0.78 6.65,4.36 8.04,6.92 1.52,1.11 1.43,1.14 2.79,2.56l7.45 7.64c1.58,0.45 -0.12,-0.41 1.99,1.02 0.43,0.29 1.35,1.08 1.87,1.55 1.81,1.62 2.09,1.75 3.07,3.64 8.92,6.32 1.9,6.09 17.06,4.51l17.22 -1.64 17.27 -0.96 16.36 0.2c3.85,0.23 7.13,0.56 10.97,1.13l7.09 1.42c2.2,0.82 1.06,0.37 1.99,1.03 3.14,-0.33 10.4,2.06 12.67,4.03 3.34,0.99 1.73,-0.16 3.43,2.14 5.19,0.76 15.33,10.23 15.97,15.33 2.6,2.16 3.05,6.01 2.75,9.97l-2.17 7.3c-0.79,1.2 -0.52,0.77 -1.37,1.57 -1.2,8.14 -22.92,23.52 -33.33,26.79l-5.48 2.34 3.47 4.93c1.32,0.43 0.44,-1.37 1.53,1.25 2.43,1.23 1.72,0.94 3.76,2.74 1.19,1.05 1.93,1.71 3.15,2.85 2.08,1.93 3.84,3.47 5.71,5.33 -0.73,0.66 -0.4,0.5 -1.6,1.16l-10.48 3.55 -0.63 -0.49c-2.32,1.98 -7.7,3.45 -10.8,4.44 -9.21,2.95 -13.88,-13.71 -23.02,-16.07l-17.36 5.33 -18.79 3 -5.32 -0.19c-1.14,0.73 0.24,0.2 -1.78,0.64 -5.02,1.1 -20.69,-0.25 -25.35,-1.01 -4.39,-0.55 -13.7,-2.27 -16.63,-4.58 -5.87,-1.67 -11.08,-4.84 -13.46,-9.1 -2,-0.91 -1.1,-0.25 -2.74,-2.22l15.29 -5.13 18.13 -5.74c2.16,-0.17 4.55,2.52 7.27,3.84 2.91,1.42 5.74,2.17 9.2,2.78 6.92,0.63 10.77,-0.06 17.23,-0.9 5.4,-1.67 11.44,-2.63 15.92,-5.04 -1.72,-1.74 -1.7,-0.96 -2.52,-3.62 -6.36,-3.63 -20.17,-18.52 -27.29,-24.74 -8.87,-7.75 -5.69,-9.72 -15.37,-8.46 -7.57,0.98 -15.88,1.96 -23.38,2.37l-16.31 1.04 -18.91 -0.39c-2.64,-0.56 -1.12,-0.27 -2,-0.78 -6.11,1.4 -26.82,-3.59 -29.96,-7.52 -6.89,-2.56 -13.45,-8.69 -16.2,-14.64 -4.25,-3.22 -3.25,-12.2 -1.37,-16.56 2.79,-5.93 11.14,-14.21 17.19,-16.22l1.1 -0.48 3.66 -2.88c1.29,-0.79 2.36,-1.39 3.79,-2.15 3.22,-1.7 5.58,-2.84 9.06,-3.85l9.31 -4.36c-1.56,-2.24 -2.12,-1.89 -3.59,-4.2l-6.98 -6.76c-0.07,-0.3 -0.31,-0.32 -0.46,-0.49 -2.3,-1.31 -4.69,-3.34 -6.07,-5.81l6.78 -2.07zm50.37 -49.6l-15.92 1.85 -16.72 2.77c-5.19,0.82 -11.99,3.15 -17,2.82 -2.83,2.46 -14.36,4.59 -18.65,5.45 -4.67,2.08 -11.31,3.59 -16.72,5.72 -5.41,2.14 -11.57,5.01 -16.72,6.67 -6.04,3.07 -11.85,5.49 -17.76,8.83 -5.94,3.36 -11.34,7.24 -16.86,10.04 -2.11,1.96 -1.7,2.19 -4.67,2.71 -1.52,2.94 -4.11,4.1 -6.38,5.82 -3.22,2.44 -2.81,3.33 -6.62,4.94l-7.55 7.24 -8.01 10.43c-1.47,1.44 -0.35,0.34 -1.58,1.31 -0.36,1.98 0.58,0.24 -1.1,2.87 -1.05,1.64 -0.77,1.16 -1.95,1.91 -1.46,4.61 -5.57,10.31 -7.65,16.02 -2.06,5.65 -3.88,11.89 -4.76,18.47 -0.66,4.86 0.38,20.22 -0.02,21.56 -0.02,0.08 -9.19,12.69 -9.77,13.33 -2.62,5.43 -5.95,10.61 -7.68,16.77l-1.38 1.35 -2.94 16.11 0.18 17.32c1.59,6.1 2.38,12 4.87,18.02 2.13,5.15 6.17,11.36 7.57,15.41l8.66 11.9c2.52,1.65 3.58,2.94 5.35,5.29l12.05 11.6c2.6,0.85 5.19,3.75 7.78,5.65 2.86,1.61 6.1,4.12 8.45,6.03 5.66,2.93 11.2,6.45 17.09,9.79 5.58,3.17 11.37,5.26 17.41,8.25 5.79,1.86 11,4.41 16.99,6.43 5.5,1.86 12.07,3.52 17.4,5.64l17.05 4.35 17.09 3.47 17.71 2.55 16.15 1.8c24.73,0.76 44.81,1.89 69.74,-0.1 5.01,-0.61 11.41,-2.01 16.43,-1.21 3.92,-2.58 13.61,-2.82 18.87,-3.52 3.97,-1.21 10.59,-2.93 14.56,-2.52 0.19,-0.14 0.46,-0.28 0.61,-0.36 0.15,-0.07 0.43,-0.25 0.62,-0.34l17.9 -4.97c6.04,-1.82 11.51,-3.45 17.24,-5.66 4.26,-1.64 12.47,-5.71 16.38,-5.8 1.75,-2.09 14.57,-7.9 17.49,-9.41l17.65 -9.94c0.49,-1.19 -0.15,-0.52 1.66,-1.73 2.41,-1.61 0.99,-0.79 2.86,-1.23 1.33,-2.34 4.33,-4.23 6.47,-5.82 2.81,-2.08 3.44,-3.65 6.72,-4.86 0.58,-1.43 -0.11,-0.32 1.26,-1.84 0.34,-0.37 1.22,-1.13 1.77,-1.63 1.93,-1.76 1.71,-1.98 3.7,-2.92 1.34,-2.6 2.88,-4.33 4.88,-6.6 2.45,-2.79 2.86,-4.46 5.6,-5.81 0.34,-2.34 -0.88,0.03 1.08,-3.05 1.72,-2.7 0.49,-1.12 1.78,-1.49 2.12,-5.18 5.09,-9.36 7.48,-15.03 2.06,-4.88 3.09,-10.79 5.17,-14.95 1.11,9.78 0.86,20.18 -1.9,29.02 -1.57,5.71 -4.08,13.09 -7.01,17.38 -1.79,3.73 -4.55,9.33 -7.47,11.07 -0.58,2.64 0.34,-0.29 -0.64,1.73 -0.31,0.64 -0.5,1 -0.93,1.6 -1.49,2.05 -0.86,1.62 -2.31,1.92 -2.52,4.51 -8.66,11.86 -12.81,13.95l-4.95 4.17 -6.17 5.32c-2.42,1.98 -3.82,3.06 -6.54,4.17 -2.57,3.63 -27.87,17.15 -34.31,19.02 -4.11,3.08 -28.7,11.47 -35.13,12.77l-16.47 4.46 -18.84 3.94c-4.16,0.99 -9.49,2.34 -13.81,1.65 -4.03,2.81 -30.39,4.89 -35.79,3.4 -8.01,3.67 -75.33,-1.15 -86.45,-4.97l-2.08 -0.94c-3.95,0.71 -10.59,-1.07 -14.29,-2.44 -8.03,-1.26 -16.82,-3.62 -19.07,-5.38 -4.12,0.3 -29.99,-8.92 -32.6,-11.17 -6.83,-1.98 -12.37,-5.68 -18.33,-8.16l0.18 2.99 8.8 9.95c2.44,0.99 6.57,4.95 8.01,7.61 4.92,1.73 11.5,8.43 11.69,8.64l0.88 1.1c2.29,0.6 3.57,1.12 4.74,3.08 4.62,1.47 12.35,7.15 18.07,9.87 3.64,1.73 16.35,7.28 18.24,9.47 2.82,0.1 12.57,3.95 15.67,5.49 6.12,1.66 11.8,3.74 17.98,5.48l13.67 3.56c2.82,0.71 2.53,0.2 4.44,1.78 4.95,-0.37 11.37,1.58 15.92,2.55 3.17,0.47 6.12,1.02 9.16,1.45 1.48,0.21 2.99,0.34 4.47,0.6l4.39 1.32c4.69,-0.97 11.34,0.63 16.34,1.07l16.87 1.07 11.35 0.37 22.92 -0.36c4.99,-0.18 10.96,-1.36 15.85,-0.37 1.93,-1.14 1.3,-0.7 4.24,-1.06 1.56,-0.19 3.24,-0.27 4.76,-0.43 3.21,-0.34 6.42,-0.72 9.61,-1.18 4.27,-0.56 11.04,-2.49 15.49,-1.69 0.99,-0.63 0.07,-0.27 2.05,-0.93l17.3 -3.7c4.72,-1.33 31.64,-9.14 33.33,-9.09 2.3,-2.06 6.43,-3.02 9.22,-4.12 3.59,-1.41 6.32,-2.74 9.86,-3.77 0.78,-0.88 13.94,-7 16.62,-8.46 6.12,-3.35 11.19,-6.84 16.86,-9.97 2.3,-1.78 2.13,-1.96 5.27,-3.35 0.46,-1.63 9.68,-8.3 11.44,-8.81 2.21,-3.64 5.19,-6.19 8.08,-8.53 1.84,-2.8 2.15,-2.37 4.54,-4.96 2.07,-2.24 1.66,-3.43 4.39,-4.59l5.12 -7.67c1.93,-4.72 5.37,-9.63 7.72,-15.33 2.37,-5.77 3.97,-11.31 4.86,-18.01l0.41 -18.08c-1.27,-6.96 -1.67,-10.8 -4.16,-17.42 -1.04,-2.77 -2.06,-5.37 -3.28,-7.94 -1.52,-3.23 -3.02,-4.54 -3.38,-7.64 -2.63,-1.83 -5.88,-7.36 -7.53,-9.88 -1.43,-2.09 -1.33,-1.65 -3.16,-3.69 -0.66,-0.74 -1,-1.11 -1.49,-1.93 -0.85,-1.43 -0.18,-0.15 -0.68,-1.69 -2.04,-1.27 -4.28,-3.32 -6.12,-5.31 -1.51,-1.64 -1.48,-1.67 -2.94,-3.06 -2.13,-2.02 -0.97,-0.22 -2.68,-2.95l-3.06 -1.69c-2.01,-1.57 0.29,-0.28 -2.28,-1.86 -1.86,2.14 -2.74,4.19 -4.18,6.42 -8.28,12.79 -21.25,24.63 -33.52,33.63 -3.49,2.56 -3.75,3.54 -6.86,3.95 -1.63,2.41 -1.09,1.64 -3.93,3.29 -1.98,1.16 -2.39,1.4 -4.66,2.3l-9.48 5.45 -18.07 8.24c-3.11,2.49 -28.21,11.2 -32.57,10.98 -0.19,0.15 -0.46,0.3 -0.61,0.38 -3.33,1.83 -12.49,4.03 -18.49,4.91 -4.01,1.32 -9.66,2.76 -14.14,2.36 -3.89,3.3 -31.51,4.99 -38.38,5.45l-15.39 0.94 -17.28 0.21 -16.42 -0.59c-7.53,-0.16 -38.38,-1.61 -42.78,-5.13 -3.34,0.41 -6.47,-0.24 -9.58,-1l-17.18 -3.72 -17.64 -4.79 -35.16 -13.71c-2.74,-0.11 -14.21,-5.7 -15.43,-7.47 -3.23,-1.26 -4.22,-1.25 -6.07,-3.74 -3.42,-0.48 -9.82,-5.24 -11.89,-7.21 -3.41,-2 -11.24,-7.08 -12.61,-10.26 -2.41,-0.74 -3.49,-1.47 -4.6,-3.6 -4.19,-1.65 -9.9,-8.76 -12.19,-13.03 -1.77,-0.29 -1.21,-0.26 -2.78,-2.32 -2.17,-2.84 -1.46,-1.07 -1.9,-4.03 -2.63,-1.47 -6.41,-7.81 -7.35,-11.23 -2.47,-3.25 -6.02,-10.58 -5.76,-15.06l-1.74 -3.83c-1.92,-7.01 -2.8,-20.49 -0.69,-26.82 4.87,20.4 9.25,21.7 11.6,29.21 1.12,0.8 1.02,0.55 1.97,1.98 1.91,2.9 0.72,0.51 1.11,2.81 4.74,3.64 0.67,0.8 5.53,6.05l5.06 6.58 6.84 6.29c3.47,1.67 3.34,2.6 6.35,5.05 2.18,1.78 4.7,3.37 6.29,5.13l4.71 3.44c5.71,2.87 10.54,6.94 16.85,10.05 4.32,2.13 13.48,6.32 17.52,8.81 5.91,2.47 11.55,4.69 17.46,7.04 5.71,2.28 11.78,3.72 17.12,5.82l17.04 4.51 16.53 3.67c3.49,0.44 6.72,1.07 10.22,1.63 1.45,0.23 2.93,0.38 4.5,0.67 2.91,0.54 2.27,0.06 4.16,1.3 5.1,-0.73 11.1,0.78 16.47,1.26 27.86,2.95 58.4,2.12 86.15,-1.13 5.18,-0.81 11.3,-2.33 16.45,-1.8 3.68,-2.69 12.53,-2.97 17.72,-4.14l17.61 -4.34c4.54,-1.83 12.24,-3.83 17.19,-5.44 5.88,-1.91 11.57,-4.72 17.25,-6.32l16.86 -7.94 1.22 -0.71c2.28,-1.54 13.49,-7.74 15.29,-8.09 1.61,-2.39 22.59,-15.32 35.43,-31.23l9.31 -12.45c1.62,-4.77 5,-9.05 6.67,-14.91l0.87 -1.18 3.83 -16.38 -0.17 -18.18c-2.24,-15.45 -6.4,-21.42 -12.28,-33.11 -2.08,-2.66 -3.95,-5.68 -6.2,-8.56 -2.13,-2.72 -4.34,-4.64 -6.5,-7.28 -4.81,-5.9 -9.32,-8.43 -13.92,-13.89 -1.99,-0.73 -4.85,-2.99 -6.49,-5.04 -3,-1.31 -7.39,-4.64 -9.93,-6.68 -5.19,-2.54 -11.12,-6.45 -16.53,-9.38 -3.38,-1.84 -15.06,-6.79 -16.86,-8.36 -11.2,-3.32 -23.48,-8.66 -35.69,-12.16l-17.02 -4.35c-4.67,-0.89 -15.48,-1.95 -18.47,-4.21 -4.52,0.42 -11.78,-0.96 -15.76,-1.84 -31.37,-2.33 -55.99,-3.96 -87.56,-1.32z"/>
   <path class="fil0" d="M32.46 289l-7.51 17.44c-1.05,2.31 -0.05,0.77 -1.38,2.3 0.26,7.02 -2.85,15.7 -2.24,25.92 0.48,7.92 4.8,18.59 4.85,23.06l10.69 19.1 0.44 0.85 14 16.01c1.29,0.48 0.27,-0.23 1.95,1.13 0.84,0.68 1.13,1.22 1.51,1.72l17.45 13.9 17.01 10.27 12.1 5.91 5.12 2.62 16.94 6.81 34.6 10.35 16.58 3.72 18.01 2.91 17.5 1.93c5.31,0.53 23.58,0.52 26.3,2.25l8.04 -0.53 17.11 -0.22c4.76,0 10.03,-1.05 14.77,-0.12 3.77,-2.4 14.25,-2.05 19.58,-2.45 4.6,-1.02 11.63,-2.46 16.56,-1.85 1.84,-1.35 1.74,-0.98 4.69,-1.54 1.44,-0.28 2.91,-0.5 4.36,-0.78 3.14,-0.62 5.82,-1.24 8.87,-1.85 4.33,-1.2 31.97,-8.77 33.64,-8.73l18.12 -7.31c4.23,-2.71 12.44,-5.72 17.41,-8.25 3.66,-1.86 13.42,-8.09 16.04,-8.52 2.43,-2.73 4.59,-3.89 7.84,-5.4 1.14,-1.91 7.85,-6.35 10.23,-8.18 1.36,-1.65 3.05,-2.5 4.84,-4.42 2.2,-2.35 2.03,-2.76 4.41,-3.98 1.62,-2.8 4.69,-5.31 7.2,-7.43 0.99,-2.17 5.89,-8.81 8.2,-10.29 0.39,-2.13 -0.22,-0.44 1.09,-3.01 4.04,-7.92 2.77,-3.66 8.39,-16.73l-6.48 3.94c-0.55,1.62 -0.28,0.89 -1.99,2.31 -1.4,1.16 -1.21,0.94 -2.49,1.87 -2.34,1.69 -3.36,2.71 -6.02,3.81 -5.52,4.66 -25.74,16.36 -34.34,18.85l-17.29 6.94c-5.58,3.24 -26.88,8.76 -34.31,10.31l-17.4 3.51 -18.76 2.98 -32.61 2.85c-16.36,1.2 -38,0.27 -54.69,-1.17 -2.88,-0.25 -5.97,-0.64 -8.61,-0.96 -3.69,-0.44 -5.3,-0.26 -7.24,-1.63 -4.92,0.71 -10.94,-0.83 -15.75,-1.87l-17.03 -3.46 -17.01 -4.57c-6.39,-1.19 -33.24,-9.87 -36.12,-13.45 -6.18,-0.46 -29.27,-14.03 -33.21,-17.28 -4.18,-2.38 -10.67,-6.88 -13.14,-9.7l-4.18 -3.27c-4.23,-3.28 -10.73,-9.69 -13.8,-14.08 -1.01,-0.6 -0.52,0.13 -1.69,-1.49 -1.55,-2.15 -0.52,-0.62 -0.97,-2.31 -3.52,-1.71 -8.38,-10.02 -10,-14.3 -2.7,-1.72 -6.27,-12.15 -7.18,-16.34l-1.35 -5.19c-1.83,-3.66 -11.51,-7.18 -13.28,-11.25 -2.52,-1.15 -1.63,-0.34 -3.19,-2.24 -1.24,-0.76 -0.91,-0.05 -2.32,-1.95 -1.21,1.02 -0.68,0.66 -1.81,1.67 -1.15,1.03 -0.1,0.33 -1.03,0.86z"/>
   <path class="fil0" d="M278.7 131.48l-6.67 0.93c0.82,0.98 1.11,1.51 1.84,2.57 1.63,0.53 1.05,-0.2 2.87,1.89 1.49,1.72 0.94,1.12 1.43,2.63l13.83 12.36c1.85,1.41 2.56,2.31 3.4,3.97 3.91,2.24 6.6,5.39 10.05,8.35l7.7 -2.79c2.36,-1.34 5.08,-2.77 7,-4.07 2.76,-1.85 4.26,-3.96 6.38,-5.53 5.33,-10.15 -2.09,-11.64 -5.53,-17.34 -2.59,-0.23 -1.6,-0.27 -4.27,-1.38 -1.09,-0.45 -2.41,-0.95 -3.51,-1.41 -9.98,-1.68 -13.83,-1.64 -24.13,-1.17l-10.39 0.97z"/>
   <path class="fil0" d="M192.07 91.23c2.4,4.24 6.34,7.6 9.81,10.26 0.15,-0.2 0.5,-0.63 0.63,-0.43l3.01 -0.85c0.68,-0.05 3.35,0.12 4.23,0.13l0.23 -17.24 -17.25 0.12c-0.05,2.61 0.58,6 -0.66,8.01z"/>
  </g>
 </g>
</svg>
