<?xml version="1.0" encoding="UTF-8"?>
<!DOCTYPE svg PUBLIC "-//W3C//DTD SVG 1.1//EN" "http://www.w3.org/Graphics/SVG/1.1/DTD/svg11.dtd">
<!-- Creator: CorelDRAW 2020 (64 Bit) -->
<svg xmlns="http://www.w3.org/2000/svg" xml:space="preserve" width="34.8915mm" height="34.8915mm" version="1.1" style="shape-rendering:geometricPrecision; text-rendering:geometricPrecision; image-rendering:optimizeQuality; fill-rule:evenodd; clip-rule:evenodd"
viewBox="0 0 1158.45 1158.45"
 xmlns:xlink="http://www.w3.org/1999/xlink"
 xmlns:xodm="http://www.corel.com/coreldraw/odm/2003">
 <defs>
  <style type="text/css">
   <![CDATA[
    .fil0 {fill:black}
   ]]>
  </style>
 </defs>
 <g id="Camada_x0020_1">
  <metadata id="CorelCorpID_0Corel-Layer"/>
  <g id="_2466367548384">
   <path class="fil0" d="M401.19 196.9c29.04,-3.42 63.89,-1.74 93.86,-1.74 64.88,0 237.81,-4.17 280.94,3.93 95.37,17.93 174.18,96.46 186.27,198.28 3.57,30.01 1.76,66.29 1.76,96.99 0,65.57 4.4,240.18 -4.81,284.2 -19.81,94.69 -97.48,170.86 -199.88,182.38 -29.18,3.28 -64.93,1.49 -94.96,1.49 -64.56,0 -237.39,4.27 -280.35,-4.11 -95.18,-18.57 -173.81,-96.22 -185.7,-198.75 -3.43,-29.62 -1.67,-65.35 -1.67,-95.74 0,-65.19 -4.36,-239.73 4.54,-283.36 19.56,-95.98 96.78,-171.41 200,-183.57zm116.97 -194.14c-8.01,1.26 -17.27,3.17 -24.43,1.56 -5.65,3.4 -27.95,6.53 -35.5,7.87l-7.37 0.09c-5.23,4.61 -17.59,6.18 -25.35,7.58l-27.67 8.3 -34.92 12.31c-4.13,3.9 -5.49,3.3 -10.36,3.29 -2.58,2.54 1.12,-0.19 -3.76,3.03 -1.73,1.15 -2.02,1.32 -4.03,2.34 -3.55,1.79 -6.74,2.88 -10.89,4.2 -6.28,3.96 -18.03,10.25 -25.19,11.14 -3.75,4.74 -46.55,29.51 -58.41,37.48 -7.15,4.81 -3.19,3.42 -10.29,4.4l-5.5 6.81c-2.06,1.8 -6.2,4.66 -8.27,6.26 -6.27,4.86 -9.2,7.1 -15.78,11.8l-9.39 6.16c-3.53,8.06 -16.85,17.33 -23.97,22.21 -0.32,4 0.42,2.79 -3.72,6.59 -4.58,4.21 -2.48,2.29 -6.01,3.49 -4.23,8.48 -11.4,15.41 -20.5,20.58 -1.79,5.53 -3.84,8.1 -8.44,11.12 -2.98,5.28 -6.67,9.11 -10.11,13.46l-11.15 12.59 -3.77 4.73 -44.34 68.31c-0.6,6.64 -5.68,13.75 -9.38,20.23 -2.62,6.36 -2.96,8.23 -7.37,12.27 -0.4,6.23 -5.23,18.68 -9.39,23.34 -3.32,12.75 -8.75,24.22 -12.93,37.11 -3.5,10.77 -6.42,28.23 -12.65,35.81 0.32,7.76 -2.41,16.92 -4.29,23.7 -1.94,10.45 -2.66,29.23 -8.2,36.33l-2.04 26.49c-5.5,60.51 -2.24,102.15 4.51,160.66 2.26,7.96 4.26,17.43 3.75,25.87 5.72,6.87 8.03,24.67 10,34.59 2.75,7.2 2.83,5.61 2.42,13.24 3.91,4.36 5.63,11.71 7.41,18.81 3.85,7.23 8.77,19.3 9.01,27.32 6.68,6.08 12.21,24.25 16.68,33.66 5.94,12.51 12.4,22.68 17.12,34.82 3.71,2.38 11.05,16.23 11.72,20.78 2.1,1.84 1.7,0.87 3.58,3.54 3.67,5.23 1.02,0.89 3.73,7.06 2.61,0.87 1.25,-0.52 4.94,4.92 1.72,2.54 2.4,4.12 4.07,6.58 4.8,7.11 6.89,6.9 8.12,14.19 7.35,4.08 6.23,6.61 12.14,13.42 2.73,3.42 4.12,4.7 7.7,8.91 3.96,4.66 3.64,4.21 4.86,9.02 8.08,5.08 13.75,11.6 17.55,19.54l11.15 12.06c5.34,3.11 6,4.49 10.58,8.78 1.66,1.56 2.85,2.44 4.31,3.96 4.05,4.21 2.04,1.3 5.05,6.42 3.29,0.98 0.16,-0.93 5.04,2.26 0.36,0.23 3.27,2.56 3.52,2.79 3.67,3.35 2.95,2.15 4.56,6.85 4.97,2.19 5.34,2.28 9.64,5.91l5.27 5.26c0.33,0.37 0.77,0.91 1.07,1.26 0.31,0.36 0.82,1.03 1.08,1.32 0.25,0.31 0.74,0.89 1.08,1.36 4.63,1.15 0.09,-1.01 6.12,3.06 2.4,1.62 3.76,2.7 6.08,4.42 4.72,3.5 6.89,4.78 8.85,8.64 7.39,2.5 5.06,-0.14 9.35,7.04 5.62,1.09 2.26,-0.1 8.15,3.57 2.29,1.43 4.15,2.92 6.16,4.25 5.4,3.58 9.75,6.05 13.4,8.92 3.8,1.85 6.37,3.47 9.56,5.45 6.13,3.79 4.14,1.26 8.53,6.88l10.33 5.05c12.12,3.96 22.61,10.53 34.17,15.97l30.28 13.51c5.07,2.98 1.65,0.78 4.19,2.94 6.78,-0.04 18.91,3.82 24.27,7.81l68.43 19.35c8.37,-1.09 17.75,1.61 26.42,3.12l33.04 4.15 28.91 2.08 35.22 0.63 19.67 0.73 44.34 -4.88c7.46,-1.36 15.15,-3.02 22.26,-1.72l68.6 -16.55c6.65,-2.89 15.48,-6.16 23.22,-6.14 6.33,-6.15 29.05,-13.03 38.72,-15.54l0.24 0.86c6.25,-6.93 18.69,-10.19 28.22,-14.33 7.46,-4.91 18.84,-11.71 27.61,-12.74 4.09,-5.21 8.22,-7.3 14.63,-9.52 2.38,-2.1 4.75,-3.91 8.02,-5.8 5.82,-3.36 3.39,-2.36 8.94,-3.26 3,-4.78 37.37,-27.94 48.4,-36.96 3.43,-2.81 4.64,-3.78 8.19,-6.43l8.98 -5.09c2.1,-4.63 -0.5,-0.29 2.61,-3.99l11.46 -11.39c5.91,-5.54 10.7,-10.7 17.74,-14.3l1.29 -1.25c3.53,-6.75 8.31,-10.28 13.57,-16.32 5.02,-5.76 7.77,-12.6 16.16,-14.91 2.35,-9.02 14.59,-20.66 23.57,-32.72 7.96,-10.68 15.94,-23.34 23.97,-33.95l8.95 -12.91c2.14,-6.8 5.78,-12.91 9.81,-18.45l14.68 -26.87c1.83,-6.3 1.93,-6.56 4.72,-12.4 0.42,-0.88 2.41,-4.74 2.82,-5.4 3.03,-4.85 0.46,-1.75 3.86,-5.11 0.11,-6.09 -0.74,-4.33 3.12,-10.01l15.34 -38.47c-0.26,-7.93 4.16,-18.7 6.32,-25.38 0.66,-2.71 1.37,-6.38 2.24,-8.96 0.23,-0.67 0.97,-2.61 1.24,-3.22 2,-4.53 0.9,-2.26 2.5,-4.46l1.65 -12.13c0.93,-6.66 2.18,-12.33 3.47,-19.1 1.12,-5.85 1.97,-14.12 5.08,-19.31 -1.44,-7.07 0.5,-16.83 1.88,-24.36 0.88,-11.53 -0.06,-31.26 4.45,-39.69l-0.94 -25.29 -0.8 -33.13 -0.18 -21.76c-4.36,-6.71 -5.59,-32.96 -6.76,-43.31 -2.21,-7.66 -3.97,-16.03 -3.36,-24.13l-20.08 -68c-3.76,-7.76 -8.77,-19.23 -8.92,-27.48 -6.46,-6.09 -12.37,-24.02 -16.77,-33.78 -5.75,-12.75 -12.22,-22.51 -16.98,-34.93 -6.01,-3.76 -2.69,-2.35 -3.2,-7.04 -6.9,-4.83 -12.24,-16.21 -15.79,-24.34 -3.18,-1.12 -14.38,-17.98 -15.32,-23.09 -3.3,-2.39 -2.83,-1.12 -5.75,-6.26 -5.8,-5.21 -19.14,-22.13 -20.74,-27.81 -7.35,-3.38 -6.84,-3.69 -9.92,-10.06l-18.21 -20.64c-8.16,-4.37 -8.4,-3.64 -11.5,-11.94 -5.3,-2.33 -7.49,-5.42 -12.62,-9.64 -2.2,-1.82 -3.94,-2.81 -5.93,-4.69 -5.13,-4.88 -2.34,-0.15 -2.99,-5.01l-10.85 -8.7 -6.97 -4.65c-2.9,-2.21 -4.06,-3.18 -7.02,-5.55l-11.42 -10.31c-6.53,-2.66 -0.9,0.61 -4.81,-2.38 -5.84,-4.47 -2.03,-1.5 -4.57,-4.94 -5.26,-1.32 -6.6,-2.61 -11.69,-6 -2.04,-1.36 -3.54,-2.11 -6.01,-4.23 -2.76,-2.36 -2.05,-1.32 -2.75,-3.25 -8.81,-3.81 -22.76,-10.39 -28.2,-18.09l-2.77 -0.69 -70.44 -34.55c-6.49,-0.14 -17.07,-3.29 -22.48,-7.52l-65.79 -18.3 -32.33 -5.73 -29.76 -4.64 -29.17 -2.51c-33.27,-1.97 -63.65,-0.59 -96.52,1.81z"/>
   <path class="fil0" d="M561.82 391.26c60.24,-7.53 106.34,14.04 142.01,42.29 28.45,22.53 60.18,63.72 67.26,122.15 13.64,112.43 -70.21,199.96 -166.42,210.83 -109.62,12.38 -197.52,-69.03 -208.83,-165.43 -13.19,-112.48 69.56,-197.78 165.98,-209.84zm208.88 -57.28c26.48,-8.12 50.86,10.27 56.23,31.29 6.93,27.12 -10.91,49.68 -31.12,55.17 -57.86,15.73 -81.16,-69.28 -25.11,-86.46zm-501.22 411.44c7.8,88.29 77.93,144.75 165.69,144.77 51.62,0.01 103.24,-0.01 154.87,-0.01 48.87,0 107.22,2.93 154.95,-0.45 84.89,-6 146.71,-74.34 146.8,-165.22 0.05,-52.31 -0.01,-104.62 -0.01,-156.92 0,-48.45 2.97,-107.4 -0.49,-154.59 -2.8,-38.18 -24.61,-83.28 -51.37,-104.85 -31.44,-25.34 -60.93,-40.79 -115.66,-40.76 -51.62,0.03 -103.24,0.01 -154.87,0.01 -48.63,0 -107.56,-3.03 -154.96,0.54 -86.82,6.53 -145.5,76.21 -145.54,165.73 -0.02,57.46 -2.86,272.77 0.59,311.77z"/>
   <path class="fil0" d="M463.28 592.69c7.4,63.54 63.02,113.25 132.78,106.45 61.88,-6.03 115.21,-62.82 107.68,-133.68 -6.59,-62.1 -63.7,-115.37 -134.42,-106.82 -61.51,7.44 -114.32,63.01 -106.04,134.04z"/>
  </g>
 </g>
</svg>
