<?xml version="1.0" encoding="UTF-8"?>
<!DOCTYPE svg PUBLIC "-//W3C//DTD SVG 1.1//EN" "http://www.w3.org/Graphics/SVG/1.1/DTD/svg11.dtd">
<!-- Creator: CorelDRAW 2020 (64 Bit) -->
<svg xmlns="http://www.w3.org/2000/svg" xml:space="preserve" width="26.0049mm" height="36.985mm" version="1.1" style="shape-rendering:geometricPrecision; text-rendering:geometricPrecision; image-rendering:optimizeQuality; fill-rule:evenodd; clip-rule:evenodd"
viewBox="0 0 103.57 147.31"
 xmlns:xlink="http://www.w3.org/1999/xlink"
 xmlns:xodm="http://www.corel.com/coreldraw/odm/2003">
 <defs>
  <style type="text/css">
   <![CDATA[
    .fil0 {fill:#E75638}
   ]]>
  </style>
 </defs>
 <g id="Camada_x0020_1">
  <metadata id="CorelCorpID_0Corel-Layer"/>
  <path class="fil0" d="M-0 48.34l0 2.65c0.11,0.18 0.3,1.55 0.66,2.45 0.69,1.75 1.27,2.61 2.34,4.11 1.31,1.84 2.47,4.15 3.21,6.34 0.56,1.66 0.94,3.27 1.21,5.23 0.65,4.65 -0.05,9.77 4.47,13.14 1.2,0.89 1.6,1.13 3.11,1.73l4.38 1.95c0.38,0.18 0.79,0.36 1.11,0.5 2.17,0.91 2.93,1.03 4.98,3.08 3.13,3.13 5.88,7.45 9.75,9.35 1.68,0.83 3.32,0.81 5.5,0.43 0.87,-0.15 1.74,-0.31 2.74,-0.48 1.52,-0.25 3.57,-0.87 5.28,-1.17 4.93,-0.88 6.56,-0.06 10.97,1.01 2.89,0.7 5.34,1.21 8.34,0.35 1.86,-0.54 4.2,-2.65 5.53,-4.02l2.12 -2.71c1.33,-1.49 1.74,-1.9 3.22,-3.22 5.29,-4.73 11.05,-3.68 15.06,-8.99 1.11,-1.47 1.41,-2.54 1.66,-4.79 0.33,-3 0.43,-5.55 1.06,-8.49 0.28,-1.29 0.05,-1.33 0.56,-2.66 1.8,-4.71 3.73,-6.19 5.18,-9.32 0.46,-1 0.76,-1.91 0.97,-3.06 0,-0.02 0.05,-0.29 0.05,-0.29 0.01,-0.03 0.01,-0.06 0.02,-0.09l0.06 -0.17c0.01,-0.02 0.02,-0.06 0.03,-0.08l0 -2.76 -0.07 -0.16c-0.01,-0.02 -0.02,-0.06 -0.03,-0.08 -0.01,-0.02 -0.07,-0.26 -0.07,-0.28 -0.68,-3.14 -1.36,-4.07 -3.24,-6.89 -2.79,-4.18 -3.79,-6.84 -4.07,-12.04 -0.05,-0.91 0.06,-1.81 -0.07,-2.7 -0.06,-0.44 -0.07,-0.93 -0.13,-1.25 -0.08,-0.47 -0.12,-0.62 -0.21,-1.05 -0.56,-2.55 -1.92,-5.2 -3.98,-6.72 -4,-2.96 -5.9,-2.33 -9.26,-4.32 -3.22,-1.91 -2.11,-1.41 -4.6,-3.34 -0.95,-0.73 -1.81,-1.9 -2.61,-2.8 -0.4,-0.46 -0.77,-1.01 -1.14,-1.51 -1.52,-2.03 -3.56,-3.84 -6.04,-4.66 -1.14,-0.38 -0.78,-0.21 -1.67,-0.4 -0.14,-0.03 -0.16,-0.04 -0.27,-0.07 -0.02,-0.01 -0.07,0 -0.08,-0.03 -0.02,-0.03 -0.06,-0.02 -0.08,-0.03l-2.99 0 -1.41 0.32c-0.54,0.11 -0.8,0.17 -1.28,0.33 -2.16,0.71 -3.13,0.91 -5.43,1.25 -4.51,0.66 -7.6,-0.2 -11.47,-1.29l-2.62 -0.6 -2.65 0 -0.55 0.14c-2.66,0.42 -5.75,2.24 -7.27,4.23l-5.77 6.43c-4.19,3.1 -5.06,2.48 -9,4.47 -2.98,1.5 -5.85,2.78 -6.93,6.65 -0.63,2.23 -0.56,4.59 -0.93,7.12 -0.86,5.92 -1.87,9.04 -5.21,13.78 -1.81,2.57 -1.67,2.91 -2.35,5.36l-0.06 0.17zm13.92 0.12c0,10.76 2.83,19.92 10.5,27.59 3.17,3.17 6.89,5.85 10.9,7.85 2.14,1.07 4.15,1.94 6.68,2.65 4.15,1.16 5.98,1.27 10.36,1.27 7.88,0 17.37,-3.65 23.44,-8.55l2.58 -2.25c2.31,-2.13 5.26,-6.16 6.66,-8.88 0.16,-0.3 0.25,-0.41 0.42,-0.73 0.81,-1.5 1.9,-4.22 2.47,-5.93 3.04,-9.13 2.73,-19.16 -1.51,-27.64l-1.62 -2.99c-0.55,-0.92 -1.21,-1.98 -1.87,-2.85 -0.36,-0.48 -0.6,-0.87 -0.98,-1.32 -0.39,-0.47 -0.69,-0.87 -1.09,-1.33 -1.35,-1.55 -2.93,-3.49 -4.58,-4.74l-3.96 -3.06c-1.32,-0.8 -3.24,-1.96 -4.6,-2.53 -1.15,-0.48 -2.13,-0.91 -3.3,-1.3 -2.54,-0.84 -7.12,-1.83 -9.88,-1.86l-6.68 0.12c-3.78,0.01 -11.2,2.48 -14.36,4.39 -0.51,0.31 -0.93,0.54 -1.45,0.85 -0.56,0.34 -0.95,0.6 -1.47,0.95 -1.2,0.81 -4.14,3.14 -5.18,4.25 -0.26,0.27 -0.29,0.38 -0.55,0.6 -1.6,1.38 -4.42,5.37 -5.59,7.3 -1.33,2.21 -2.11,3.95 -3.04,6.28 -0.43,1.07 -0.84,2.44 -1.13,3.59 -0.62,2.52 -1.17,5.16 -1.17,8.26zm4.03 -0.81c0,2.87 -0.07,3.74 0.34,6.68 0.33,2.35 0.82,4.52 1.6,6.68 0.86,2.37 1.44,3.5 2.62,5.66 2.11,3.87 3.76,4.66 4.9,6.5 0.9,1.45 0.27,0.54 1.09,1.09 0.22,0.15 0.98,1.06 1.59,1.51l2.35 1.79c1.93,1.37 3.26,2.02 5.37,3.03 0.91,0.44 1.96,0.85 2.96,1.18 2.55,0.87 4.02,1.18 6.71,1.57 1.77,0.26 3.37,0.34 5.12,0.22 3.32,-0.22 6.35,-0.37 9.7,-1.48l5.07 -2.18c5.59,-2.8 10.26,-7.17 13.47,-12.53 1,-1.67 2.21,-3.73 2.86,-5.55 0.37,-1.04 0.8,-2 0.99,-3.15 0.19,-1.13 0.49,-2.36 0.66,-3.49 0.5,-3.45 0.58,-7.3 0,-10.75 -0.37,-2.2 -0.94,-4.5 -1.71,-6.58l-1.24 -2.91c-1.11,-2.46 -2.38,-4.2 -3.94,-6.3l-1.91 -2.23c-1.13,-1.28 -4.09,-3.75 -5.53,-4.71 -3.15,-2.11 -7.7,-4.29 -11.52,-5.05 -3.85,-0.77 -3.71,-0.58 -7.38,-0.91l-3.8 0.21c-2.03,0.2 -5.03,0.7 -6.86,1.43 -3.9,1.55 -6.07,2.3 -9.57,4.93 -1.05,0.79 -2.45,1.89 -3.38,2.83l-1.96 2.07c-3.72,4.43 -5.65,7.7 -7.32,13.4 -0.48,1.65 -1.28,5.35 -1.28,7.01zm18.18 99.66l0.81 0 0.13 -0.1c1.35,-1.02 1.75,-2.93 2.67,-5.04 1.36,-3.15 2.72,-6.81 4.08,-9.96 0.22,-0.51 0.42,-0.93 0.63,-1.45l9.44 -22.79c0.33,-0.81 2.24,-5.28 2.28,-5.77 -0.74,-0.06 -1.78,-0.45 -2.56,-0.55 -1.84,-0.24 -3.82,-0.01 -5.61,0.43 -4.67,1.14 -10.05,2.7 -14.65,0.5l-1.54 -0.88c-2.29,-1.52 -2.89,-1.92 -4.73,-4.02l-3.68 -4.26c-0.88,-0.88 -1.51,-1.56 -2.56,-2.27 -0.37,0.5 -0.34,0.1 -0.68,1.05l-10.16 24.48c-0.68,1.7 -1.42,3.37 -2.12,5.13l-4.27 10.35c-0.26,1.16 0.47,2.08 1.25,2.23 0.69,0.14 1.18,-0.05 1.6,-0.19 0.49,-0.16 0.93,-0.24 1.46,-0.38 1.83,-0.5 3.62,-1.26 5.52,-1.73 0.96,-0.23 2.01,-0.38 3.06,-0.51 1.13,-0.15 0.58,-0.05 1.19,-0.65 0.53,-0.52 0.76,-0.17 1.42,-0.42l1.34 -0.51c0.51,-0.17 0.9,-0.28 1.41,-0.43 0.88,-0.26 2.07,-0.61 3.02,-0.22 0.71,0.29 1.31,1.23 1.72,1.85l3.91 7.14c1.24,2.39 2.63,4.65 3.67,7.27 0.5,1.25 0.64,1.22 1.65,1.57l0.33 0.14zm31.07 0l0.57 0c0.41,-0.26 0.41,0.3 1.65,-1.92 0.96,-1.73 2.41,-4.11 3.26,-5.83l3.11 -5.98c0.51,-1.03 2.02,-4.09 2.75,-4.5 0.93,-0.52 2.05,0.12 2.86,0.34l8.42 2.51c1.34,0.38 7.53,2.39 8.57,2.38 1.09,-0.01 1.87,-0.76 1.71,-1.94 -0.15,-1.05 -6.08,-15.02 -7.25,-18.08 -0.56,-1.49 -1.35,-2.79 -1.64,-3.77l-1.6 -3.92c-0.39,-0.87 -0.67,-1.63 -1.05,-2.52l-3.79 -8.99c-0.22,-0.45 -0.35,-0.87 -0.54,-1.3 -0.22,-0.5 -0.99,-2.13 -1.03,-2.65 -0.86,0.07 -1.93,1.41 -2.45,2.04l-4.43 4.78c-0.72,0.72 -0.99,1.32 -2.28,2.32 -0.33,0.26 -0.47,0.41 -0.82,0.68 -3.3,2.46 -6.77,3.13 -10.99,2.52 -2.4,-0.35 -2.23,0.67 -3.5,3.83 -1.21,3.01 -3.11,7.19 -4.1,9.83 -0.68,1.83 0.28,3.07 0.93,4.86 0.67,1.89 1.93,4.59 2.69,6.51 0.31,0.79 0.61,1.38 0.94,2.17 1.27,3.05 2.38,5.33 3.59,8.72 0.52,1.45 0.8,1.88 1.33,3.16 0.14,0.34 0.3,0.74 0.48,1.13 0.41,0.88 0.92,2.4 1.56,3.04 0.11,0.12 0.33,0.26 0.48,0.33 0.2,0.1 0.09,0.04 0.24,0.1l0.33 0.14zm-24.05 -97.71c0,3.59 -0.14,5.87 0.76,9.37 0.16,0.62 0.19,1.25 0.28,1.91 0.16,1.14 0.5,2.48 0.84,3.53 1.82,5.57 -1.11,2.63 8.43,4.81 5.82,1.33 9.87,1.96 15.65,0.03 3.24,-1.08 2.9,-3.3 3.3,-4.52 0.48,-1.44 1.35,-1.8 2.48,-5.35 1.4,-4.41 1.38,-6.68 0.75,-10.97 -0.43,-2.91 0.77,-4.67 -1.45,-6.72 -0.67,-0.61 -1.61,-1.18 -2.85,-1.18 -1.13,0 -0.56,0.43 -1.81,-0.03 -0.66,-0.24 -1.22,-0.32 -2.1,-0.32 -0.95,0.01 -1.48,-0.07 -2.3,-0.12 -0.86,-0.05 -1.26,-0.29 -1.96,-0.46 0,-2.96 5.7,-8.33 2.11,-14.54 -0.7,-1.21 -2.08,-2.84 -3.6,-2.84 -3.66,0 -3.26,1.71 -3.7,5.39 -0.18,1.53 -1.04,2.58 -1.85,3.79l-3.75 4.77c-1.51,1.5 -2.12,1.68 -3.56,3.46 -1.84,2.25 -2.12,4.63 -4.16,5.74 -0.77,0.42 -1.39,0.26 -1.41,1.47 -0.01,1 -0.11,1.68 -0.11,2.77zm-15.77 1.27c0,4.58 0.56,8.44 1.47,12.11l0.42 2c0.13,0.41 0.19,0.25 0.35,0.57 0.53,1.06 -0.01,3.59 1.84,4.84 2.52,1.71 3.45,0.7 4.97,0.45 0.37,-0.06 0.45,0.05 1.09,0.05 0.87,0 0.73,-0.27 1.21,-0.51 0.48,-0.24 0.52,0.02 1.3,-0.43 0.64,-0.37 2.21,-0.53 3.03,-0.54 1.28,-0.01 0.91,-1.07 0.59,-2.34l-1.86 -7c-0.54,-4.66 -1.04,-8.72 -0.47,-13.47 0.08,-0.71 0.18,-1.64 -1.25,-1.58l-6 0.21c-0.86,-0.01 -2.16,-0.08 -2.98,0.02 -1.67,0.19 -2.37,-0.02 -3.16,1.44 -0.24,0.43 -0.42,0.54 -0.43,1.19 -0.01,1.08 -0.11,1.84 -0.11,3zm35.56 -50.87l-22.21 0 2.62 0.6c3.87,1.09 6.95,1.95 11.47,1.29 2.3,-0.33 3.27,-0.54 5.43,-1.25 0.48,-0.16 0.74,-0.22 1.28,-0.33l1.41 -0.32zm-24.86 66.17c0,1.73 0.87,1.96 2.42,1.96 0.92,0 2.24,-1.68 0.64,-3.17 -0.17,-0.16 -0.41,-0.33 -0.62,-0.41 -0.55,-0.22 -1.33,-0.36 -1.73,0.15 -0.16,0.2 -0.71,1.1 -0.71,1.48z"/>
 </g>
</svg>
