<?xml version="1.0" encoding="UTF-8"?>
<!DOCTYPE svg PUBLIC "-//W3C//DTD SVG 1.1//EN" "http://www.w3.org/Graphics/SVG/1.1/DTD/svg11.dtd">
<!-- Creator: CorelDRAW 2020 (64 Bit) -->
<svg xmlns="http://www.w3.org/2000/svg" xml:space="preserve" width="33.8928mm" height="36.4071mm" version="1.1" style="shape-rendering:geometricPrecision; text-rendering:geometricPrecision; image-rendering:optimizeQuality; fill-rule:evenodd; clip-rule:evenodd"
viewBox="0 0 239.46 257.23"
 xmlns:xlink="http://www.w3.org/1999/xlink"
 xmlns:xodm="http://www.corel.com/coreldraw/odm/2003">
 <defs>
  <style type="text/css">
   <![CDATA[
    .fil0 {fill:#E75638}
   ]]>
  </style>
 </defs>
 <g id="Camada_x0020_1">
  <metadata id="CorelCorpID_0Corel-Layer"/>
  <g id="_2466346068624">
   <path class="fil0" d="M106.24 43.06l-2.59 17.01c-2.02,0.97 -4.7,1.62 -6.95,2.52 -2.5,0.99 -4.53,2.16 -6.78,3.24 -1.66,-0.64 -5.35,-3.74 -7.02,-4.98 -2.29,-1.69 -4.59,-3.59 -6.91,-5.12 -2.21,0.59 -10.02,7.56 -11.42,8.98 -1.36,1.38 -8.35,9.25 -9.1,11.41 1.48,2.34 10.16,12.89 10.12,13.93 -0.96,2.16 -2.12,4.14 -3.08,6.44 -0.99,2.38 -1.68,4.77 -2.62,7.33 -3.11,0.6 -15.2,1.58 -16.73,2.67 -0.62,0.53 -0.53,0.15 -0.93,3.11 -0.17,1.24 -0.32,2.4 -0.42,3.59 -0.98,10.99 0.27,12.53 0.86,22.14l16.96 2.3c1.16,1.88 1.52,4.36 2.83,7.33 0.9,2.03 2.57,4.96 3.12,6.78 -0.67,1.1 -1.43,1.97 -2.34,3.17l-7.7 10.36c1.13,4.34 16.44,19.3 20.44,20.52l13.41 -10.18c2.27,0.75 4.4,2.16 6.93,3.15 2.04,0.8 5.51,1.59 7.2,2.79 1.41,3.74 1.15,13.82 2.74,16.68 2.18,2.48 27.49,1.87 28.57,-0.03l2.64 -16.68c1.48,-0.94 7.99,-2.65 13.74,-5.86 2.22,0.83 4.82,3.43 6.93,4.96 1.89,1.37 5.2,4.25 7.4,5.21 4.38,-2.86 7.68,-5.94 10.95,-9.2 3.56,-3.55 5.99,-6.41 9.18,-10.96 -1.02,-2.19 -8.38,-11.04 -10.17,-13.93 0.39,-1.49 3.5,-7.25 4.47,-10.28l0.82 -2.7c0.6,-1.22 0.2,-0.51 0.73,-1.07 4.31,-1.05 13.48,-1.19 16.79,-2.66 1.6,-5.02 1.8,-21.66 0.35,-27.11 -0.48,-1.79 -0.01,-0.73 -0.66,-1.41 -1.43,-0.98 -13.97,-2.23 -16.84,-2.63 -1.68,-5.55 -3.44,-8.98 -5.67,-13.82 1.21,-2.96 9.13,-11.44 10.15,-14.33 -3.04,-4.42 -5.76,-7.42 -9.15,-10.93 -1.65,-1.7 -8.94,-8.49 -11.33,-9.06 -2,1.25 -4.19,3.1 -6.2,4.61 -2.07,1.55 -4.14,3.14 -6.39,4.82 -1.8,1.35 -2.64,-0.15 -7.01,-2.07 -2.51,-1.1 -5.76,-1.95 -8.05,-3.02 -3.12,-17.86 0.09,-16.93 -7.35,-17.8 -6.47,-0.75 -17.77,-1.04 -23.9,0.8zm8.48 31.37c-40.19,5.05 -55.75,55.87 -23.95,82.42 8.14,6.79 21.41,12.05 35.59,10.32 23.87,-2.92 43.99,-24.88 40.57,-52.36 -2.94,-23.63 -24.7,-43.83 -52.22,-40.38z"/>
   <path class="fil0" d="M116.46 88.26c-8.82,1.66 -15.37,4.25 -21.19,11.54 -19.99,25.04 2.45,57.87 29.51,53.65 16.58,-2.58 30.54,-16.66 28.43,-36.72 -0.97,-9.23 -6.38,-16.9 -11.46,-21.19 -5.25,-4.43 -15.64,-9.09 -25.29,-7.28zm0.53 37.23c-1.72,-1.03 -4.18,-3.86 -5.74,-5.42 -1.3,-1.3 -4.4,-4.68 -5.8,-5.61l-6.64 6.5c0.55,1.12 16.84,17.59 18.18,18.44 1.48,-0.53 16.14,-15.71 19.12,-18.68 1.74,-1.73 5.28,-4.92 6.19,-6.39 -0.71,-1.06 -5,-5.76 -6.61,-6.52 -1.82,0.75 -7.47,6.91 -9.3,8.77 -2.04,2.09 -7.47,8.18 -9.41,8.9z"/>
   <path class="fil0" d="M70.53 11.25c0.12,0.96 6.1,13.05 7.04,14.57l15.92 -5.4c35.41,-9.41 71.98,0.1 97.93,24.24 2.26,2.1 9.43,8.73 10.34,11.61 -1.62,1.12 -3.62,2.73 -5.66,4.27 -1.9,1.43 -4.48,3.06 -5.81,4.44l1.88 0.85c6.15,1.82 31.94,8.29 34.2,8.29l1.97 -36.75c-3.59,0.79 -9.63,7.7 -13.1,8.53 -18.88,-24.69 -49.57,-41.46 -80.79,-44.95 -5.72,-0.64 -18.45,-1.53 -24.21,-0.41 -8.81,1.71 -8.89,0.47 -21.29,3.83 -3.56,0.97 -16.33,5.12 -18.42,6.89z"/>
   <path class="fil0" d="M128.34 210c-1.43,0.42 -11.58,9.43 -14.31,11.62 -2.53,2.04 -5.02,4.09 -7.22,5.94 -1.34,1.13 -6.21,4.86 -7.09,6.17 0.7,1.28 27.74,23.16 28.79,23.5 0.05,-3.03 -0.51,-14.17 0.4,-15.94 1.36,-0.53 9.29,-1.25 11.54,-1.57 42.27,-6.05 79.86,-38.61 93.7,-78.28 1.47,-4.21 5.43,-16.28 5.29,-21.1l-16.53 -0.1c-1.72,4.97 -2.41,11.04 -5.46,18.52 -9.01,22.1 -24.28,40.17 -44.47,51.8 -5.85,3.37 -10.13,5.09 -16.47,7.79 -5.57,2.37 -12.55,3.75 -19.03,4.92 -13.47,2.42 -7.73,1.8 -9.15,-13.27z"/>
   <path class="fil0" d="M20.98 91.64c0.44,-3.59 4.87,-14.72 6.85,-17.5 1.83,0.28 4.5,2.48 6.05,3.5 1.87,1.23 3.99,3.25 6.45,3.46l-0.39 -7.07 -3.27 -28.95c-1.47,0.03 -31.35,8.96 -35.47,10.79 1.1,2.54 10.54,6.32 12.35,9.11 -2.22,8.27 -6.57,8.85 -12.12,37.67 -2.86,14.85 -0.99,31.64 1.73,45.55 3.92,20.06 16.87,42.08 31.03,56.5 1.48,1.51 4.71,5.42 6.77,5.88 0.97,-0.99 9.54,-11.82 9.32,-13.06l-8.69 -9.39c-2.8,-3.33 -5.05,-6.03 -7.71,-10.18 -2.38,-3.71 -4.63,-7.32 -6.52,-11.43 -6.54,-14.18 -10.37,-26 -10.66,-43.42 -0.11,-6.53 1.48,-27.43 4.28,-31.44z"/>
  </g>
 </g>
</svg>
